<svg width="609" height="413" viewBox="0 0 609 413" fill="none" xmlns="http://www.w3.org/2000/svg">
<g clip-path="url(#clip0_411_111)">
<path fill-rule="evenodd" clip-rule="evenodd" d="M340.157 41.999C340.157 64.09 322.241 82 300.139 82C278.038 82 260.12 64.09 260.12 41.999C260.12 19.909 278.038 2 300.139 2C322.241 2 340.157 19.909 340.157 41.999ZM599.362 121.804C613.479 121.804 606.874 99.427 588.988 104.772C587.998 73.702 537.331 50.969 516.38 92.875C510.457 88.19 497.155 97.039 500.101 104.772C493.521 105.333 488.344 106.093 484.317 107.101C475.018 109.428 476.859 121.699 486.444 121.613L599.362 121.804ZM333.374 121.804C320.024 121.804 326.27 100.644 343.183 105.698C344.119 76.318 392.03 54.821 411.843 94.448C417.444 90.018 430.022 98.386 427.237 105.698C433.459 106.228 438.353 106.948 442.162 107.9C450.955 110.101 449.214 121.705 440.151 121.624L333.374 121.804ZM495.67 44.343C489.309 44.343 492.285 34.26 500.344 36.668C500.79 22.668 523.621 12.425 533.061 31.307C535.73 29.196 541.723 33.184 540.396 36.668C543.361 36.921 545.694 37.264 547.509 37.718C551.699 38.766 550.869 44.295 546.55 44.257L495.67 44.343ZM439.561 81.522H475.802C479.043 81.522 480.439 77.329 477.787 75.469L477.675 75.39C473.9 72.797 468.945 73.032 468.945 73.032C468.945 73.032 468.238 59 454.907 59C442.854 59 438.048 70.823 436.315 77.337C435.752 79.453 437.37 81.522 439.561 81.522ZM45.3945 120.522H5.37788C2.13837 120.522 0.740718 116.329 3.39295 114.468L3.50601 114.39C7.28076 111.796 12.2361 112.031 12.2361 112.031C12.2361 112.031 12.9434 98 26.2746 98C32.8656 98 38.1911 109.261 38.1911 109.261C38.1911 109.261 47.1573 109.261 48.641 116.336C49.0902 118.48 47.5865 120.522 45.3945 120.522ZM101.799 124H261.584C276.583 124 275.895 111.592 270.995 107.268C265.974 102.836 256.052 104.634 256.052 104.634C256.052 104.634 253.098 96.288 243.375 92.224C234.774 88.63 225.765 90.34 225.765 90.34C225.765 90.34 225.765 84.612 220.259 79.869C214.751 75.124 207.409 75.586 207.409 75.586C207.409 75.586 202.361 44 168.633 44C134.903 44 131.003 73.74 131.003 73.74C131.003 73.74 123.431 73.74 117.924 78.813C112.417 83.885 111.729 89.648 111.729 89.648C111.729 89.648 93.3127 87.155 87.8652 103.118C84.6197 112.631 91.2888 124 101.799 124ZM44.6441 59.075H94.7264C99.4276 59.075 99.2115 55.186 97.6758 53.83C96.102 52.441 92.9926 53.005 92.9926 53.005C92.9926 53.005 92.0661 50.389 89.0187 49.115C86.3235 47.989 83.4992 48.525 83.4992 48.525C83.4992 48.525 83.4992 46.729 81.7734 45.242C80.0476 43.755 77.7455 43.9 77.7455 43.9C77.7455 43.9 76.1638 34 65.5918 34C55.0199 34 53.7974 43.322 53.7974 43.322C53.7974 43.322 51.4243 43.322 49.6985 44.912C47.9717 46.501 47.7566 48.308 47.7566 48.308C47.7566 48.308 41.9839 47.526 40.2771 52.53C39.2596 55.512 41.3496 59.075 44.6441 59.075Z" stroke="#6F6F6F" stroke-width="3"/>
<path d="M360.647 389.819V281V389.819ZM247.683 389.819V281V389.819Z" stroke="#6F6F6F" stroke-width="4" stroke-linecap="round" stroke-linejoin="round"/>
<path fill-rule="evenodd" clip-rule="evenodd" d="M228.916 328.141H379.352V310.723H228.916V328.141ZM228.916 302.803H379.352V284.33H228.916V302.803Z" stroke="#6F6F6F" stroke-width="3"/>
<path fill-rule="evenodd" clip-rule="evenodd" d="M214.135 356.115H394.132V342.919H214.135V356.115Z" stroke="#6F6F6F" stroke-width="3"/>
<path fill-rule="evenodd" clip-rule="evenodd" d="M214.135 356.115H394.132V342.919H214.135V356.115Z" stroke="#6F6F6F" stroke-width="3"/>
<path d="M594.368 406.235C568.792 407.269 562.023 411.665 535.475 409.855C522.829 410.113 509.332 409.338 496.97 408.821C491.092 405.459 480.757 408.821 473.785 405.976L471.11 407.786C468.719 406.752 465.922 406.234 463.49 407.269L463.652 407.786C460.086 406.493 456.032 407.269 454.29 406.493L454.452 407.01L450.115 406.752L450.844 407.528C444.602 405.976 438.198 405.976 432.524 406.493L433.01 404.166C420.891 406.752 416.473 402.097 405.57 404.942L405.732 405.459C391.911 399.512 383.926 409.596 369.7 403.908C371.483 404.683 368.929 404.942 369.092 405.717C362.525 405.2 355.554 404.683 355.432 400.288C350.65 400.288 351.541 401.58 350.933 403.39C350.974 401.58 346.799 400.546 343.07 400.546L344.772 401.322L334.072 400.546L336.18 396.926C330.505 397.96 334.721 401.322 329.33 400.546L329.411 397.443C321.588 397.96 316.968 402.615 309.388 404.942C277.854 406.235 243.97 398.478 214.665 403.908L213.368 406.235C212.801 409.596 205.262 401.322 204.168 404.424L200.763 402.873C199.79 403.39 197.764 404.166 199.466 404.942C196.304 405.2 196.223 404.424 193.954 403.649L190.549 405.717C178.106 407.269 167.527 403.39 154.435 404.166C138.709 408.303 109.08 404.425 92.0159 402.356C68.0209 397.443 40.1349 410.63 15.5729 404.942C14.7619 405.459 12.6949 404.425 12.7359 403.908L-9.75913 404.424C-9.75913 404.424 -118.749 405.718 -35.9431 378.05L-36.5101 377.275C-24.1891 375.465 -16.4471 375.206 -7.97613 378.826C-6.63811 374.43 2.11589 378.309 4.99389 377.016L4.70989 376.757C12.2089 380.119 20.1529 373.913 27.4079 377.016C27.1249 376.757 26.9629 375.464 25.3009 375.464C30.5699 375.981 37.7839 377.016 38.1899 374.43C50.7949 375.206 68.3449 373.913 76.4109 378.05L75.8439 377.275C80.4239 380.119 81.8019 377.791 86.9499 379.084C87.2329 378.826 87.5979 378.567 87.5169 378.309C92.5429 381.153 102.149 378.826 106.162 379.86L106.405 378.05L116.376 378.567L112.647 378.826C113.944 383.48 120.186 375.723 127.4 378.826C134.169 378.309 141.141 388.652 148.153 386.324C151.517 388.652 145.194 382.705 150.22 384.515C150.382 381.929 147.869 382.963 149.166 380.895C154.07 382.187 157.232 378.309 163.312 380.119L163.555 378.309C171.458 381.929 178.47 375.723 183.74 379.084C191.887 380.636 189.211 373.396 197.723 377.016L201.047 374.43C204.695 373.913 203.641 377.533 207.694 376.24C207.451 374.689 212.801 374.947 210.41 373.396C219.529 370.81 228.933 377.016 240.971 372.62C243.565 375.723 249.644 373.913 251.59 376.24C251.914 374.947 263.709 375.981 256.94 372.878C256.373 372.62 255.319 372.62 255.4 373.137L254.589 371.327C261.439 367.707 267.032 373.396 273.842 372.62C271.815 373.137 269.14 373.137 270.923 374.43L277.246 374.171L275.95 372.62L285.353 371.586L284.056 373.655C288.636 372.62 290.257 369.258 295.445 372.103C297.796 373.654 291.108 374.689 295.932 375.464C302.093 374.171 311.293 372.103 319.116 371.586C318.386 373.913 320.494 373.654 322.683 374.171L322.926 372.362C331.235 374.947 325.966 368.224 334.234 370.293L333.505 369L335.693 373.137C343.151 377.016 339.706 369.259 347.975 374.43C344.691 374.172 346.434 378.567 350.447 377.791L349.434 375.982C351.663 376.499 352.392 377.274 353.892 376.757C352.555 375.723 353.203 374.172 356.486 374.43L354.298 372.103L360.499 375.464C365.282 373.396 372.861 375.981 374.847 373.396C374.847 373.396 385.142 372.103 387.493 374.947C385.426 373.137 391.1 372.362 389.479 370.293C392.154 372.362 400.017 373.913 403.179 371.844L402.571 371.586C414.244 369.259 422.513 374.689 432.97 371.844C432.483 374.171 438.036 372.878 436.658 375.723C447.48 378.567 456.397 369.776 460.329 378.826C465.274 379.343 466.165 376.757 468.719 376.24L467.543 375.723C476.785 376.498 479.46 376.499 486.31 376.24C489.714 377.016 490.282 381.153 496.402 380.119C494.416 378.567 496.929 378.826 499.199 378.826C497.74 378.567 497.294 378.05 500.293 376.757C500.699 377.274 501.388 377.533 501.996 377.791C502.036 377.791 502.158 377.533 502.077 377.275C505.887 377.792 505.238 378.309 503.455 378.567C503.536 378.826 503.414 379.084 502.847 379.602C506.819 377.533 513.912 379.86 514.398 377.016C525.909 377.791 534.137 380.636 543.703 381.67C544.797 380.119 542.527 378.826 539.771 378.309L546.581 378.826C546.54 376.757 542.689 377.533 540.582 377.275C548.688 373.913 557.281 380.636 566.765 377.533L568.751 379.084L569.319 378.826C569.278 379.602 571.427 380.894 572.805 381.153C574.142 379.343 572.724 377.016 577.425 377.016C581.154 375.206 587.964 377.792 592.827 378.826C590.193 379.084 591.044 380.119 592.179 380.895C594.53 380.895 595.867 379.084 597.691 379.86L597.934 377.533C597.002 379.86 604.055 380.119 604.946 380.895C606.284 379.085 601.299 379.343 600.731 378.05C610.134 378.309 605.433 378.05 614.877 378.309C619.903 380.119 613.944 380.636 616.376 382.704C620.794 383.222 625.131 384.773 630.238 383.48L628.617 385.549C636.967 387.359 641.952 387.1 647.545 384.773C709.64 402.356 660.637 408.821 660.637 408.821C636.075 414.251 623.469 408.045 594.368 406.235Z" stroke="#6F6F6F" stroke-width="3"/>
<path fill-rule="evenodd" clip-rule="evenodd" d="M488.56 291.681C486.177 295.199 487.752 303.812 490.404 312.672C488.411 310.595 486.205 309.48 483.851 310.137C477.315 311.958 483.51 323.432 483.51 323.432C483.51 323.432 462.634 299.313 454.656 307.531C450.376 311.946 468.432 335.15 468.432 335.15C468.432 335.15 457.778 330.875 457.524 339.299C457.446 341.868 458.914 344.854 460.991 347.763C460.049 350.45 459.523 352.484 459.523 352.484C459.523 352.484 460.796 344.818 456.096 345.836C452.835 346.542 449.541 353.235 446.726 361.181C440.984 356.576 434.191 352.181 431.725 354.771C427.148 359.577 432.035 364.076 432.035 364.076C432.035 364.076 415.722 361.026 413.342 367.175C410.137 375.46 430.383 380.092 435.409 381.106C432.346 380.573 424.134 379.548 426.237 384.33C427.31 386.769 432.361 388.22 439.107 389.042L439 389.551C439 389.551 446.967 390.109 455.83 389.981C470.884 390.157 486 389.048 486 389.048L485.859 388.866C499.008 390.994 518.058 390.382 526.426 389.966C550.857 390.582 584.063 389.903 587.604 381.914C590.679 374.977 578.673 376.465 574.194 377.238C581.543 375.767 611.144 369.048 606.457 357.029C602.978 348.11 579.127 352.534 579.127 352.534C579.127 352.534 586.272 346.009 579.581 339.036C576.186 335.498 567.18 340.946 559.131 347.171C558.208 344.958 556.028 344.824 554.052 344.702C552.183 344.586 550.495 344.482 550.228 342.639C549.757 339.384 555.822 337.504 562.243 335.514C569.541 333.252 577.3 330.847 576.449 326.117C575.604 321.428 569.383 323.933 563.618 326.254C558.693 328.237 554.101 330.086 553.481 327.199C553.146 325.638 558.138 324.343 564.215 322.766C573.208 320.433 584.58 317.482 584.58 312.142C584.58 306.577 575.644 308.541 567.716 310.283C562.895 311.343 558.448 312.32 556.607 311.474C554.802 310.643 560.341 307.392 567.727 303.056C580.252 295.703 598.086 285.234 594.426 278.166C591.539 272.59 578.751 279.613 567.914 285.564C560.941 289.393 554.776 292.778 552.578 292.078C549.855 291.21 554.349 285.847 560.492 278.517C567.018 270.728 575.406 260.719 578.973 251.523C586.133 233.065 578.568 224.67 566.215 239.885C563.522 243.202 560.462 247.164 557.308 251.247L557.307 251.248C545.996 265.893 533.475 282.104 532.305 275.805C531.784 272.999 533.004 267.378 534.306 261.379C536.741 250.155 539.463 237.612 531.605 239.718C514.594 244.279 511.835 269.319 509.071 294.407C508.388 300.604 507.705 306.804 506.807 312.698C506.676 313.554 505.854 311.532 504.568 308.367C501.118 299.879 494.328 283.171 488.56 291.681Z" stroke="#6F6F6F" stroke-width="3"/>
<path fill-rule="evenodd" clip-rule="evenodd" d="M166.747 341.698C175.263 350.978 171.901 398.635 171.901 398.635C171.901 398.635 152.126 394.579 134.591 388.837C124.701 389.497 53.6271 393.813 48.3541 381.914C45.2791 374.977 57.2841 376.465 61.7641 377.238C54.4141 375.767 24.8141 369.048 29.5001 357.029C32.9801 348.11 56.8311 352.534 56.8311 352.534C56.8311 352.534 49.6861 346.009 56.3771 339.036C63.0671 332.064 91.5511 359.989 91.5511 359.989C91.5511 359.989 80.0001 338.309 93.3221 344.566C95.2611 345.477 97.6181 347.167 100.217 349.375C103.085 350.148 105.608 351.51 105.608 351.51C105.608 351.51 81.4891 330.634 89.7071 322.656C94.1221 318.376 117.326 336.432 117.326 336.432C117.326 336.432 113.051 325.778 121.475 325.524C129.899 325.27 142.801 341.623 142.801 341.623C142.801 341.623 158.23 332.415 166.747 341.698Z" stroke="#6F6F6F" stroke-width="3"/>
<path fill-rule="evenodd" clip-rule="evenodd" d="M176.5 380.75C176.5 380.75 75 299.702 75 225.683C75 171.178 120.447 127 176.5 127C232.553 127 278 171.178 278 225.683C278 299.702 176.5 380.75 176.5 380.75Z" stroke="#666AF6" stroke-width="3"/>
<path d="M176.432 192C155.679 192 139 208.442 139 228.564C139 248.69 155.811 265 176.564 265C197.317 265 213.999 248.69 213.999 228.436C214.131 208.442 197.317 192 176.432 192Z" stroke="#666AF6" stroke-width="3" stroke-linecap="round" stroke-linejoin="round"/>
<path d="M345.363 190.03C345.79 193.331 346.934 197.311 348.785 198.662C350.885 200.196 351.534 201.825 351.534 201.825L353.667 201.167L356.218 200.381C356.218 200.381 356.222 200.121 356.206 199.687C356.187 199.116 356.141 198.545 356.069 197.978C356.069 197.978 355.583 196.933 356.265 195.916C356.946 194.902 357.259 193.162 356.78 191.946C356.302 190.734 356.203 187.988 355.751 187.967C354.657 187.905 355.407 191.817 354.803 192.369C354.26 192.872 353.795 192.549 353.712 192.48C353.706 192.476 353.7 192.471 353.695 192.466C351.046 190.488 349.086 182.67 347.285 183.249C346.613 183.464 345.178 188.624 345.363 190.03ZM453.054 271.266C453.054 271.266 450.793 275.18 451.806 277.437C452.815 279.696 456.321 282.707 457.226 283.888C458.126 285.067 461.185 288.183 462.417 286.178C463.648 284.178 461.474 278.858 459.966 276.854C458.46 274.844 458.317 271.397 458.317 271.397L453.054 271.266Z" stroke="#F8AE9D" stroke-width="3"/>
<path d="M451.607 276.785C451.607 276.785 451.779 281.097 451.984 282.249C452.19 283.403 452.394 283.05 453.182 282.275C453.97 281.501 453.961 279.244 454.257 279.095C454.553 278.947 451.607 276.785 451.607 276.785Z" stroke="#F8AE9D" stroke-width="3"/>
<path d="M412.047 189.559C412.047 189.559 385.666 217.995 377.453 222.45L356.762 198.026C356.762 198.026 352.878 198.299 350.447 201.574C350.447 201.574 358.474 236.021 373.122 240.792C387.769 245.562 417.629 212.023 417.629 212.023L412.047 189.559ZM387.451 398H414.541C415.842 396.466 415.363 390.801 415.167 388.949C415.126 388.575 415.099 388.361 415.099 388.361C415.099 388.361 405.849 381.217 404.578 386.687C404.539 386.858 404.494 387.026 404.441 387.193C402.842 392.309 395.66 394.634 391.516 395.282C388.817 395.702 387.821 397.055 387.451 398Z" stroke="#31446C" stroke-width="3"/>
<path d="M405.689 398H432.779C434.081 396.466 433.601 390.801 433.406 388.949C433.365 388.575 433.338 388.361 433.338 388.361C433.338 388.361 424.087 381.217 422.817 386.687C422.778 386.857 422.733 387.026 422.68 387.193C421.08 392.309 413.899 394.634 409.755 395.282C407.056 395.702 406.059 397.055 405.689 398Z" stroke="#31446C" stroke-width="3"/>
<path d="M394.851 276.196C394.851 276.196 396.146 290.214 397.669 307.061C399.738 329.949 402.227 358.064 402.473 363.389C402.899 372.638 404.605 387.43 404.605 387.43C404.605 387.43 408.654 390.945 416.759 389.463C416.759 389.463 423.983 368.345 426.045 345.999L426.14 344.895C428.06 322.15 431.042 274.251 431.042 274.251L394.851 276.196Z" stroke="#666AF6" stroke-width="3"/>
<path d="M402.198 277.155C402.198 277.155 404.64 291.033 407.541 307.715C411.483 330.378 416.272 358.22 416.95 363.507C418.126 372.689 421.049 387.315 421.049 387.315C421.049 387.315 425.453 390.575 433.586 388.621C433.586 388.621 439.246 367.172 439.554 344.805L439.562 343.7C439.693 320.943 438.887 273.084 438.887 273.084L402.198 277.155Z" stroke="#666AF6" stroke-width="3"/>
<path d="M406.394 194.68C415.702 197.619 431.064 189.332 431.064 189.332C431.064 189.332 423.228 183.244 423.676 169.848L416.479 175.65L411.59 179.589C411.59 179.589 411.609 181.913 412.144 185.983C412.286 187.054 412.544 188.726 411.741 189.584C408.624 192.91 406.394 194.68 406.394 194.68Z" stroke="#F8AE9D" stroke-width="3"/>
<path d="M408.743 179.369C408.743 179.369 424.121 181.925 425.565 172.323C427.009 162.722 429.965 156.585 420.208 154.548C410.452 152.511 407.986 155.885 406.726 158.973C405.466 162.061 404.782 178.457 408.743 179.369Z" stroke="#F8AE9D" stroke-width="3"/>
<path d="M393.398 281.163C393.678 281.395 394.004 281.537 394.378 281.537C397.875 281.489 408.07 283.432 416.695 282.546C423.966 281.846 430.406 279.693 437.317 276.596C438.235 276.183 440.346 275.055 440.301 274.03C440.269 272.905 440.16 271.278 440.018 269.225C439.528 262.089 438.677 249.818 439.508 235.659C439.657 233.022 439.737 230.408 439.747 227.833C439.818 208.642 436.015 191.766 428.366 186.054C427.712 185.587 423.702 187.547 420.018 189.361C416.614 191.041 413.946 191.218 410.729 190.567L406.781 193.416C402.864 197.052 398.574 201.996 396.708 209.5C395.122 215.888 394.191 227.404 393.678 239.34C393.446 244.748 393.259 250.205 393.211 255.378V255.562C393.166 256.074 393.166 256.635 393.166 257.147C392.979 270.44 393.166 280.976 393.398 281.163Z" stroke="#31446C" stroke-width="3"/>
<path d="M455.359 273.26C452.44 273.656 449.325 273.247 449.325 273.247C449.325 273.247 442.287 246.282 441.323 243.801C440.359 241.321 417.668 211.295 417.668 211.295L429.278 186.496C429.278 186.496 453.069 232.009 455.385 238.345C459.213 248.813 459.424 271.803 459.424 271.803C459.424 271.803 457.653 272.95 455.359 273.26ZM427.295 168.884C426.458 170.615 424.029 170.871 424.253 168.962C424.508 166.789 424.505 163.946 422.738 164.475C420.972 165.004 420.882 166.419 420.157 165.593C419.431 164.768 419.419 161.287 414.158 161.042C408.898 160.801 406.761 162.631 404.318 161.555C402.854 160.91 402.22 159.326 401.947 158.158C401.869 157.827 402.11 157.365 402.331 157.623C402.54 157.867 403.065 157.852 402.916 157.568C401.989 155.81 400.604 151.972 404.134 149.113C408.859 145.288 413.675 147.792 416.408 147.956C422.432 148.321 426.323 148.681 428.289 152.64C429.918 155.923 429.639 164.035 427.295 168.884Z" stroke="#31446C" stroke-width="3"/>
<path d="M341.486 178.76L349.258 176.387C349.807 176.22 350.388 176.529 350.555 177.078L355.742 194.07C355.91 194.618 355.601 195.199 355.052 195.367L347.28 197.739C346.731 197.907 346.15 197.598 345.983 197.049L340.796 180.057C340.628 179.508 340.937 178.927 341.486 178.76Z" stroke="#666AF6" stroke-width="3"/>
</g>
<defs>
<clipPath id="clip0_411_111">
<rect width="609" height="413" fill="white"/>
</clipPath>
</defs>
</svg>
