<svg width="695" height="507" viewBox="0 0 695 507" fill="none" xmlns="http://www.w3.org/2000/svg">
<g clip-path="url(#clip0_411_43)">
<path d="M345.764 504.787C487.831 504.787 603 396.474 603 262.862C603 129.251 487.831 20.937 345.764 20.937C203.696 20.937 88.528 129.251 88.528 262.862C88.528 396.474 203.696 504.787 345.764 504.787Z" stroke="#666AF6" stroke-width="3"/>
<path d="M468.48 297.241C466.731 303.769 461.863 309.315 454.189 313.688C446.506 318.067 436.145 321.183 423.758 322.857C398.994 326.203 366.541 323.731 332.312 314.559C298.083 305.388 268.742 291.302 248.969 276.022C239.079 268.379 231.664 260.5 227.199 252.867C222.739 245.242 221.297 238.005 223.046 231.477C224.795 224.95 229.663 219.404 237.337 215.03C245.021 210.652 255.382 207.535 267.768 205.862C292.532 202.515 324.985 204.988 359.214 214.16C393.443 223.331 422.785 237.416 442.558 252.696C452.448 260.339 459.863 268.218 464.327 275.852C468.787 283.477 470.229 290.714 468.48 297.241Z" stroke="#666AF6" stroke-width="3"/>
<path d="M537.855 314.333C530.055 343.443 501.878 364.562 461.798 374.81C421.788 385.04 370.365 384.285 317.055 370C263.746 355.716 218.834 330.659 189.3 301.794C159.714 272.88 145.871 240.501 153.671 211.391C161.471 182.28 189.648 161.161 229.728 150.913C269.738 140.683 321.161 141.439 374.471 155.723C427.78 170.007 472.692 195.065 502.226 223.929C531.812 252.844 545.655 285.222 537.855 314.333Z" stroke="#666AF6" stroke-width="3"/>
<path d="M597.228 322.447C585.587 365.893 547.39 398.108 494.493 414.844C441.621 431.573 374.339 432.721 305.216 414.2C236.093 395.679 178.399 361.043 140.975 320.12C103.533 279.177 86.561 232.179 98.202 188.734C109.843 145.288 148.04 113.073 200.937 96.3369C253.809 79.6079 321.092 78.4599 390.214 96.9809C459.337 115.503 517.031 150.139 554.455 191.062C591.897 232.005 608.87 279.002 597.228 322.447Z" stroke="#666AF6" stroke-width="3"/>
<path d="M399.553 184.083C443.165 213.862 454.428 273.272 424.723 316.777C395.017 360.281 335.584 371.419 291.971 341.64C248.359 311.861 237.096 252.451 266.801 208.946C296.507 165.441 355.941 154.304 399.553 184.083Z" stroke="#666AF6" stroke-width="3"/>
<path d="M639.935 495.662C639.935 495.662 596.949 461.616 568.622 457.713C540.595 453.852 466.714 458.378 411.892 435.139C411.378 434.925 410.955 434.539 410.695 434.047C410.435 433.554 410.356 432.987 410.47 432.442C411.341 428.473 415.454 420.023 435.219 420.843C460.946 421.954 480.664 422.294 480.664 422.294C480.664 422.294 401.632 344.175 381.79 321.414C377.871 316.923 375.222 312.871 373.494 309.188C368.112 297.7 382.876 287.381 392.022 296.178L445.558 347.634C445.558 347.634 443.026 339.569 448.681 334.565C454.041 329.844 467.617 332.446 475.544 340.994C475.544 340.994 473.465 331.7 482.402 327.581C491.338 323.463 503.079 330.579 508.061 335.196C508.061 335.196 504.155 326.761 509.735 321.941C515.315 317.12 530.111 321.817 534.08 324.653C538.049 327.489 575.103 345.227 615.25 394.934L693.909 419.298C693.909 419.298 704.918 448.407 639.935 495.662ZM55.467 23.1699C55.467 23.1699 98.454 57.2159 126.78 61.1199C154.807 64.9799 228.688 60.4539 283.51 83.6929C284.024 83.9064 284.448 84.2929 284.708 84.7855C284.967 85.2781 285.047 85.846 284.932 86.3909C284.062 90.3599 279.948 98.8099 260.183 97.9889C234.457 96.8779 214.738 96.5379 214.738 96.5379C214.738 96.5379 293.77 174.658 313.612 197.418C317.531 201.91 320.181 205.962 321.908 209.645C327.291 221.133 312.527 231.451 303.38 222.655L249.845 171.199C249.845 171.199 252.376 179.264 246.722 184.268C241.362 188.988 227.786 186.386 219.858 177.838C219.858 177.838 221.937 187.133 213.001 191.251C204.064 195.37 192.323 188.254 187.342 183.636C187.342 183.636 191.248 192.072 185.668 196.892C180.088 201.712 165.292 197.015 161.322 194.179C157.353 191.343 120.3 173.605 80.153 123.898L1.49297 99.5339C1.49297 99.5339 -9.51703 70.4249 55.467 23.1709V23.1699Z" stroke="#F8AE9D" stroke-width="3"/>
<path d="M345.777 225H346.213C348.795 259.295 376 259.823 376 259.823C376 259.823 346 260.372 346 300C346 260.372 316 259.823 316 259.823C316 259.823 343.195 259.295 345.777 225Z" stroke="#666AF6" stroke-width="3"/>
<path d="M620.805 331.217C631.241 338.404 647.183 333.38 647.183 333.38C647.183 333.38 646.196 316.703 635.754 309.523C625.318 302.335 609.383 307.352 609.383 307.352C609.383 307.352 610.37 324.029 620.805 331.217Z" stroke="#6F6F6F" stroke-width="3"/>
<path d="M44.218 272.028C55.028 283.03 75.242 280.71 75.242 280.71C75.242 280.71 77.917 260.552 67.097 249.557C56.287 238.555 36.083 240.868 36.083 240.868C36.083 240.868 33.408 261.026 44.218 272.028Z" stroke="#6F6F6F" stroke-width="3"/>
<path d="M378.139 470C368.673 470 361 477.34 361 486.394C361 495.448 368.673 502.788 378.139 502.788C387.605 502.788 395.278 495.448 395.278 486.394C395.278 477.34 387.605 470 378.139 470Z" stroke="#6F6F6F" stroke-width="3"/>
<path d="M66 336.298C60.4772 336.298 56 340.775 56 346.298C56 351.821 60.4772 356.298 66 356.298C71.5228 356.298 76 351.821 76 346.298C76 340.775 71.5228 336.298 66 336.298Z" stroke="#6F6F6F" stroke-width="3"/>
<path d="M241.5 21C236.253 21 232 16.7467 232 11.5C232 6.25329 236.253 2 241.5 2C246.747 2 251 6.25329 251 11.5C251 16.7467 246.747 21 241.5 21Z" stroke="#6F6F6F" stroke-width="3"/>
<path d="M558.648 178.296C550.006 178.296 543 171.29 543 162.648C543 154.006 550.006 147 558.648 147C567.29 147 574.296 154.006 574.296 162.648C574.296 171.29 567.29 178.296 558.648 178.296Z" stroke="#6F6F6F" stroke-width="3"/>
<path d="M510.802 502.604C505.389 502.604 501 498.215 501 492.802C501 487.389 505.389 483 510.802 483C516.215 483 520.604 487.389 520.604 492.802C520.604 498.215 516.215 502.604 510.802 502.604Z" stroke="#6F6F6F" stroke-width="3"/>
<path d="M207 477C197.059 477 189 468.941 189 459C189 449.059 197.059 441 207 441C216.941 441 225 449.059 225 459C225 468.941 216.941 477 207 477Z" stroke="#6F6F6F" stroke-width="3"/>
<path d="M370 461C366.686 461 364 458.314 364 455C364 451.686 366.686 449 370 449C373.314 449 376 451.686 376 455C376 458.314 373.314 461 370 461Z" stroke="#6F6F6F" stroke-width="3"/>
<path d="M601.294 219.588C597.266 219.588 594 216.322 594 212.294C594 208.266 597.266 205 601.294 205C605.322 205 608.588 208.266 608.588 212.294C608.588 216.322 605.322 219.588 601.294 219.588Z" stroke="#6F6F6F" stroke-width="3"/>
<path d="M532.133 109.265C525.984 109.265 521 104.281 521 98.132C521 91.9834 525.984 86.999 532.133 86.999C538.282 86.999 543.266 91.9834 543.266 98.132C543.266 104.281 538.282 109.265 532.133 109.265Z" stroke="#6F6F6F" stroke-width="3"/>
<path d="M140.262 257.631C140.262 260.741 137.741 263.262 134.631 263.262C131.521 263.262 129 260.741 129 257.631C129 254.521 131.521 252 134.631 252C137.741 252 140.262 254.521 140.262 257.631Z" stroke="#6F6F6F" stroke-width="3"/>
<path d="M58.922 146.844C55.0991 146.844 52 143.745 52 139.922C52 136.099 55.0991 133 58.922 133C62.7449 133 65.844 136.099 65.844 139.922C65.844 143.745 62.7449 146.844 58.922 146.844Z" stroke="#6F6F6F" stroke-width="3"/>
<path d="M635.452 381.922C631.336 381.922 628 379.253 628 375.961C628 372.669 631.336 370 635.452 370C639.568 370 642.904 372.669 642.904 375.961C642.904 379.253 639.568 381.922 635.452 381.922Z" stroke="#6F6F6F" stroke-width="3"/>
<path d="M388 73.5C388 79.299 383.299 84 377.5 84C371.701 84 367 79.299 367 73.5C367 67.701 371.701 63 377.5 63C383.299 63 388 67.701 388 73.5Z" stroke="#6F6F6F" stroke-width="3"/>
<path d="M607.313 138H607.508C608.662 154.356 620.826 154.607 620.826 154.607C620.826 154.607 607.413 154.869 607.413 173.768C607.413 154.869 594 154.607 594 154.607C594 154.607 606.158 154.356 607.313 138ZM177.422 21H177.574C178.478 34.26 188 34.465 188 34.465C188 34.465 177.5 34.677 177.5 50C177.5 34.677 167 34.465 167 34.465C167 34.465 176.518 34.261 177.422 21Z" stroke="#6F6F6F" stroke-width="3"/>
<path d="M164.834 377.247C169.739 376.085 174.926 380.245 174.926 380.245C174.926 380.245 172.158 386.285 167.252 387.444C162.347 388.606 157.162 384.45 157.162 384.45C157.162 384.45 159.93 378.409 164.834 377.247Z" stroke="#6F6F6F" stroke-width="3"/>
<path d="M187.798 269.199C183.451 266.205 176.81 268.298 176.81 268.298C176.81 268.298 177.221 275.245 181.571 278.236C185.918 281.23 192.556 279.14 192.556 279.14C192.556 279.14 192.145 272.193 187.798 269.199Z" stroke="#6F6F6F" stroke-width="3"/>
<path d="M500.826 253.572C494.26 246.89 481.983 248.299 481.983 248.299C481.983 248.299 480.358 260.542 486.93 267.22C493.495 273.903 505.767 272.498 505.767 272.498C505.767 272.498 507.392 260.255 500.826 253.572Z" stroke="#6F6F6F" stroke-width="3"/>
<path d="M200.677 242.392C207.683 242.392 213.362 236.971 213.362 230.283C213.362 223.595 207.683 218.174 200.677 218.174C193.671 218.174 187.992 223.595 187.992 230.283C187.992 236.971 193.671 242.392 200.677 242.392Z" stroke="#6F6F6F" stroke-width="3"/>
<path d="M600.685 105.37C607.691 105.37 613.37 99.6907 613.37 92.685C613.37 85.6793 607.691 80 600.685 80C593.679 80 588 85.6793 588 92.685C588 99.6907 593.679 105.37 600.685 105.37Z" stroke="#6F6F6F" stroke-width="3"/>
<path d="M128.532 428C134.901 428 140.064 433.421 140.064 440.109C140.064 446.797 134.901 452.218 128.532 452.218C122.163 452.218 117 446.797 117 440.109C117 433.421 122.163 428 128.532 428Z" stroke="#6F6F6F" stroke-width="3"/>
<path d="M632.802 248C638.215 248 642.604 252.389 642.604 257.802C642.604 263.215 638.215 267.604 632.802 267.604C627.389 267.604 623 263.215 623 257.802C623 252.389 627.389 248 632.802 248Z" stroke="#6F6F6F" stroke-width="3"/>
<path d="M282.652 121.305C285.89 121.305 288.514 123.93 288.514 127.167C288.514 130.405 285.89 133.029 282.652 133.029C279.415 133.029 276.79 130.405 276.79 127.167C276.79 123.93 279.415 121.305 282.652 121.305Z" stroke="#6F6F6F" stroke-width="3"/>
<path d="M477.85 80.9419C481.255 80.9419 484.016 83.7025 484.016 87.1079C484.016 90.5133 481.255 93.2739 477.85 93.2739C474.445 93.2739 471.684 90.5133 471.684 87.1079C471.684 83.7025 474.445 80.9419 477.85 80.9419Z" stroke="#6F6F6F" stroke-width="3"/>
<path d="M223.825 303.613C225.503 303.613 226.863 304.973 226.863 306.651C226.863 308.329 225.503 309.689 223.825 309.689C222.147 309.689 220.787 308.329 220.787 306.651C220.787 304.973 222.147 303.613 223.825 303.613Z" stroke="#6F6F6F" stroke-width="3"/>
<path d="M288.637 470C291.198 470 293.274 472.076 293.274 474.637C293.274 477.198 291.198 479.274 288.637 479.274C286.076 479.274 284 477.198 284 474.637C284 472.076 286.076 470 288.637 470Z" stroke="#6F6F6F" stroke-width="3"/>
<path d="M457 220.132C457 216.745 459.745 214 463.132 214C466.519 214 469.264 216.745 469.264 220.132C469.264 223.519 466.519 226.264 463.132 226.264C459.745 226.264 457 223.519 457 220.132Z" stroke="#6F6F6F" stroke-width="3"/>
<path d="M559.343 260C562.846 260 565.686 262.84 565.686 266.343C565.686 269.846 562.846 272.686 559.343 272.686C555.84 272.686 553 269.846 553 266.343C553 262.84 555.84 260 559.343 260Z" stroke="#6F6F6F" stroke-width="3"/>
<path d="M81.319 187.038C87.3699 187.038 92.275 190.91 92.275 195.687C92.275 200.464 87.3699 204.336 81.319 204.336C75.2682 204.336 70.363 200.464 70.363 195.687C70.363 190.91 75.2682 187.038 81.319 187.038Z" stroke="#6F6F6F" stroke-width="3"/>
<path d="M249.634 425.367C248.732 421.999 250.73 418.537 254.098 417.635C257.466 416.733 260.927 418.731 261.83 422.099C262.732 425.467 260.734 428.928 257.366 429.831C253.998 430.733 250.536 428.735 249.634 425.367Z" stroke="#6F6F6F" stroke-width="3"/>
<path d="M210.918 346.089H210.837C210.356 339.276 205.29 339.171 205.29 339.171C205.29 339.171 210.877 339.062 210.877 331.19C210.877 339.062 216.464 339.171 216.464 339.171C216.464 339.171 211.399 339.276 210.918 346.089ZM393.751 381.73H393.655C393.091 373.579 387.148 373.453 387.148 373.453C387.148 373.453 393.702 373.323 393.702 363.904C393.702 373.323 400.255 373.453 400.255 373.453C400.255 373.453 394.315 373.579 393.751 381.73Z" stroke="#6F6F6F" stroke-width="3"/>
</g>
<defs>
<clipPath id="clip0_411_43">
<rect width="695" height="507" fill="white"/>
</clipPath>
</defs>
</svg>
