<svg width="631" height="401" viewBox="0 0 631 401" fill="none" xmlns="http://www.w3.org/2000/svg">
<g clip-path="url(#clip0_408_210)">
<path d="M516 2H234C217.984 2 205 14.9837 205 31V93C205 109.016 217.984 122 234 122H516C532.016 122 545 109.016 545 93V31C545 14.9837 532.016 2 516 2Z" stroke="#6F6F6F" stroke-width="3"/>
<path d="M285 13H247C230.431 13 217 26.4315 217 43V81C217 97.5685 230.431 111 247 111H285C301.569 111 315 97.5685 315 81V43C315 26.4315 301.569 13 285 13Z" stroke="#666AF6" stroke-width="3"/>
<path fill-rule="evenodd" clip-rule="evenodd" d="M288.267 82.555V85.831C288.267 87.64 286.818 89.108 285.033 89.108H246.233C244.448 89.108 243 87.64 243 85.831V82.502C243 72.588 254.181 66.146 265.633 66.146C277.086 66.146 288.267 72.591 288.267 82.502V82.555ZM273.751 37.363C278.235 41.846 278.235 49.115 273.751 53.599C269.268 58.083 261.999 58.083 257.515 53.599C253.031 49.115 253.031 41.846 257.515 37.363C261.999 32.879 269.268 32.879 273.751 37.363Z" stroke="#6F6F6F" stroke-width="3"/>
<path d="M502.5 29H331.5C328.462 29 326 31.4624 326 34.5C326 37.5376 328.462 40 331.5 40H502.5C505.538 40 508 37.5376 508 34.5C508 31.4624 505.538 29 502.5 29Z" stroke="#6F6F6F" stroke-width="3"/>
<path d="M502.5 56H331.5C328.462 56 326 58.4624 326 61.5C326 64.5376 328.462 67 331.5 67H502.5C505.538 67 508 64.5376 508 61.5C508 58.4624 505.538 56 502.5 56Z" stroke="#6F6F6F" stroke-width="3"/>
<path d="M502.5 83H331.5C328.462 83 326 85.4624 326 88.5C326 91.5376 328.462 94 331.5 94H502.5C505.538 94 508 91.5376 508 88.5C508 85.4624 505.538 83 502.5 83Z" stroke="#6F6F6F" stroke-width="3"/>
<path d="M516 277.957H234C217.96 277.957 204.957 290.96 204.957 307V369C204.957 385.04 217.96 398.043 234 398.043H516C532.04 398.043 545.043 385.04 545.043 369V307C545.043 290.96 532.04 277.957 516 277.957Z" stroke="#6F6F6F" stroke-width="3"/>
<path d="M285 289H247C230.431 289 217 302.431 217 319V357C217 373.569 230.431 387 247 387H285C301.569 387 315 373.569 315 357V319C315 302.431 301.569 289 285 289Z" stroke="#666AF6" stroke-width="3"/>
<path fill-rule="evenodd" clip-rule="evenodd" d="M288.267 358.555V361.831C288.267 363.64 286.818 365.108 285.033 365.108H246.233C244.448 365.108 243 363.64 243 361.831V358.502C243 348.588 254.181 342.146 265.633 342.146C277.086 342.146 288.267 348.591 288.267 358.502V358.555ZM273.751 313.363C278.235 317.846 278.235 325.115 273.751 329.599C269.268 334.083 261.999 334.083 257.515 329.599C253.031 325.115 253.031 317.846 257.515 313.363C261.999 308.879 269.268 308.879 273.751 313.363Z" stroke="#6F6F6F" stroke-width="3"/>
<path d="M502.5 305H331.5C328.462 305 326 307.462 326 310.5C326 313.538 328.462 316 331.5 316H502.5C505.538 316 508 313.538 508 310.5C508 307.462 505.538 305 502.5 305Z" stroke="#6F6F6F" stroke-width="3"/>
<path d="M502.5 332H331.5C328.462 332 326 334.462 326 337.5C326 340.538 328.462 343 331.5 343H502.5C505.538 343 508 340.538 508 337.5C508 334.462 505.538 332 502.5 332Z" stroke="#6F6F6F" stroke-width="3"/>
<path d="M502.5 359H331.5C328.462 359 326 361.462 326 364.5C326 367.538 328.462 370 331.5 370H502.5C505.538 370 508 367.538 508 364.5C508 361.462 505.538 359 502.5 359Z" stroke="#6F6F6F" stroke-width="3"/>
<path d="M600 140H318C301.984 140 289 152.984 289 169V231C289 247.016 301.984 260 318 260H600C616.016 260 629 247.016 629 231V169C629 152.984 616.016 140 600 140Z" stroke="#6F6F6F" stroke-width="3"/>
<path d="M369 151H331C314.431 151 301 164.431 301 181V219C301 235.569 314.431 249 331 249H369C385.569 249 399 235.569 399 219V181C399 164.431 385.569 151 369 151Z" stroke="#666AF6" stroke-width="3"/>
<path fill-rule="evenodd" clip-rule="evenodd" d="M372.267 220.555V223.831C372.267 225.64 370.818 227.108 369.033 227.108H330.233C328.448 227.108 327 225.64 327 223.831V220.502C327 210.588 338.181 204.146 349.633 204.146C361.086 204.146 372.267 210.591 372.267 220.502V220.555ZM357.751 175.363C362.235 179.846 362.235 187.115 357.751 191.599C353.268 196.083 345.999 196.083 341.515 191.599C337.031 187.115 337.031 179.846 341.515 175.363C345.999 170.879 353.268 170.879 357.751 175.363Z" stroke="#6F6F6F" stroke-width="3"/>
<path d="M586.5 167H415.5C412.462 167 410 169.462 410 172.5C410 175.538 412.462 178 415.5 178H586.5C589.538 178 592 175.538 592 172.5C592 169.462 589.538 167 586.5 167Z" stroke="#6F6F6F" stroke-width="3"/>
<path d="M586.5 194H415.5C412.462 194 410 196.462 410 199.5C410 202.538 412.462 205 415.5 205H586.5C589.538 205 592 202.538 592 199.5C592 196.462 589.538 194 586.5 194Z" stroke="#6F6F6F" stroke-width="3"/>
<path d="M586.5 221H415.5C412.462 221 410 223.462 410 226.5C410 229.538 412.462 232 415.5 232H586.5C589.538 232 592 229.538 592 226.5C592 223.462 589.538 221 586.5 221Z" stroke="#6F6F6F" stroke-width="3"/>
<path fill-rule="evenodd" clip-rule="evenodd" d="M216.722 238.845C195.798 238.845 178.833 221.641 178.833 200.423C178.833 179.204 195.798 162 216.722 162C237.646 162 254.611 179.204 254.611 200.423C254.611 221.641 237.646 238.845 216.722 238.845Z" stroke="#666AF6" stroke-width="3"/>
<path d="M230.063 194.019L214.057 211.095L204.448 200.851" stroke="#666AF6" stroke-width="3"/>
<path d="M163.478 110.435C162.885 115.016 161.298 120.538 158.729 122.413C155.816 124.542 154.916 126.802 154.916 126.802L151.955 125.889L148.416 124.798C148.416 124.798 148.41 124.437 148.432 123.835C148.45 123.239 148.505 122.404 148.622 121.464C148.622 121.464 149.297 120.013 148.351 118.603C147.406 117.196 146.971 114.781 147.637 113.094C148.299 111.412 148.437 107.603 149.063 107.573C150.581 107.488 149.542 112.915 150.38 113.681C151.133 114.379 151.778 113.931 151.893 113.835C151.901 113.829 151.909 113.823 151.917 113.816C155.592 111.07 158.311 100.223 160.81 101.027C161.742 101.326 163.734 108.485 163.478 110.435ZM14.053 223.154C14.053 223.154 17.191 228.584 15.786 231.716C14.385 234.85 9.52 239.028 8.265 240.667C7.015 242.303 2.772 246.626 1.062 243.844C-0.646002 241.069 2.371 233.688 4.463 230.906C6.553 228.119 6.75101 223.336 6.75101 223.336L14.053 223.154Z" stroke="#F8AE9D" stroke-width="3"/>
<path d="M16.061 230.811C16.061 230.811 15.822 236.795 15.538 238.392C15.252 239.993 14.97 239.503 13.876 238.429C12.782 237.354 12.794 234.223 12.384 234.017C11.974 233.811 16.061 230.811 16.061 230.811Z" stroke="#F8AE9D" stroke-width="3"/>
<path d="M70.952 109.782C70.952 109.782 107.556 149.237 118.951 155.42L147.661 121.531C147.661 121.531 153.05 121.909 156.424 126.454C156.424 126.454 145.285 174.249 124.962 180.869C104.639 187.488 63.206 140.951 63.206 140.951L70.952 109.782ZM105.08 399H67.492C65.686 396.871 66.351 389.011 66.622 386.441C66.679 385.923 66.717 385.625 66.717 385.625C66.717 385.625 79.552 375.713 81.315 383.303C81.368 383.541 81.434 383.775 81.505 384.005C83.725 391.103 93.69 394.329 99.439 395.228C103.184 395.811 104.567 397.688 105.08 399Z" stroke="#31446C" stroke-width="3"/>
<path d="M79.773 399H42.185C40.379 396.871 41.045 389.011 41.315 386.441C41.372 385.923 41.41 385.625 41.41 385.625C41.41 385.625 54.246 375.713 56.009 383.303C56.061 383.541 56.127 383.775 56.199 384.005C58.418 391.103 68.383 394.329 74.133 395.228C77.877 395.811 79.26 397.688 79.773 399Z" stroke="#31446C" stroke-width="3"/>
<path d="M94.812 229.993C94.812 229.993 93.015 249.443 90.903 272.82C88.032 304.577 84.579 343.587 84.237 350.976C83.645 363.809 81.279 384.334 81.279 384.334C81.279 384.334 75.66 389.211 64.414 387.155C64.414 387.155 54.391 357.852 51.53 326.847L51.398 325.316C48.733 293.756 44.596 227.295 44.596 227.295L94.812 229.993Z" stroke="#666AF6" stroke-width="3"/>
<path d="M84.618 231.324C84.618 231.324 81.229 250.58 77.204 273.727C71.734 305.173 65.09 343.804 64.149 351.14C62.517 363.88 58.462 384.173 58.462 384.173C58.462 384.173 52.351 388.697 41.067 385.986C41.067 385.986 33.212 356.224 32.786 325.19L32.775 323.657C32.593 292.081 33.711 225.675 33.711 225.675L84.618 231.324Z" stroke="#666AF6" stroke-width="3"/>
<path d="M78.796 116.887C65.88 120.966 44.566 109.467 44.566 109.467C44.566 109.467 55.438 101.019 54.816 82.4331L64.802 90.4831L71.587 95.9481C71.587 95.9481 71.56 99.1721 70.817 104.821C70.621 106.306 70.263 108.627 71.376 109.816C75.701 114.432 78.796 116.887 78.796 116.887Z" stroke="#F8AE9D" stroke-width="3"/>
<path d="M75.536 95.643C75.536 95.643 54.199 99.19 52.195 85.867C50.192 72.544 46.091 64.029 59.628 61.203C73.165 58.376 76.587 63.059 78.335 67.343C80.084 71.628 81.032 94.378 75.536 95.643Z" stroke="#F8AE9D" stroke-width="3"/>
<path d="M96.828 236.885C96.439 237.207 95.987 237.404 95.468 237.404C90.616 237.337 76.47 240.034 64.503 238.804C54.413 237.833 45.478 234.846 35.889 230.548C34.615 229.976 31.686 228.41 31.748 226.988C31.793 225.427 31.945 223.169 32.142 220.32C32.822 210.419 34.002 193.393 32.848 173.747C32.6436 170.131 32.5332 166.51 32.517 162.888C32.419 136.26 37.696 112.844 48.309 104.919C49.217 104.271 54.78 106.99 59.892 109.508C64.614 111.838 68.317 112.084 72.781 111.18L78.259 115.134C83.693 120.178 89.645 127.039 92.235 137.45C94.435 146.314 95.728 162.293 96.439 178.854C96.761 186.358 97.02 193.93 97.087 201.108V201.362C97.15 202.074 97.15 202.852 97.15 203.563C97.409 222.006 97.15 236.626 96.828 236.885Z" stroke="#31446C" stroke-width="3"/>
<path d="M10.855 225.919C14.905 226.469 19.226 225.901 19.226 225.901C19.226 225.901 28.993 188.486 30.33 185.045C31.668 181.603 63.153 139.941 63.153 139.941L47.043 105.532C47.043 105.532 14.032 168.682 10.818 177.473C5.50699 191.999 5.215 223.898 5.215 223.898C5.215 223.898 7.672 225.489 10.855 225.919ZM49.795 81.095C50.956 83.496 54.326 83.852 54.015 81.203C53.662 78.188 53.666 74.244 56.117 74.977C58.568 75.711 58.693 77.674 59.699 76.529C60.706 75.384 60.724 70.554 68.022 70.214C75.321 69.879 78.286 72.419 81.676 70.925C83.708 70.031 84.587 67.833 84.966 66.212C85.074 65.753 84.739 65.112 84.433 65.47C84.143 65.809 83.414 65.787 83.622 65.393C84.907 62.954 86.83 57.629 81.931 53.663C75.375 48.354 68.693 51.829 64.901 52.057C56.542 52.562 51.144 53.063 48.416 58.555C46.155 63.111 46.542 74.366 49.795 81.095Z" stroke="#31446C" stroke-width="3"/>
<path fill-rule="evenodd" clip-rule="evenodd" d="M615.555 58.613H612.971C612.672 58.6127 612.385 58.4938 612.174 58.2823C611.963 58.0707 611.844 57.784 611.844 57.485V54.902C611.844 54.277 612.352 53.774 612.971 53.774H615.555C616.175 53.774 616.683 54.282 616.683 54.902V57.485C616.683 57.6332 616.655 57.7801 616.598 57.9171C616.541 58.0542 616.458 58.1787 616.354 58.2835C616.249 58.3883 616.124 58.4714 615.987 58.5279C615.85 58.5845 615.703 58.6134 615.555 58.613ZM606.597 58.613H604.014C603.394 58.613 602.886 58.105 602.886 57.485V54.902C602.886 54.277 603.394 53.774 604.014 53.774H606.597C607.217 53.774 607.725 54.282 607.725 54.902V57.485C607.725 58.105 607.217 58.613 606.597 58.613ZM597.634 58.613H595.05C594.43 58.613 593.922 58.105 593.922 57.485V54.902C593.922 54.277 594.43 53.774 595.05 53.774H597.634C598.253 53.774 598.761 54.282 598.761 54.902V57.485C598.761 57.6332 598.733 57.7799 598.676 57.9169C598.62 58.0539 598.537 58.1783 598.432 58.2831C598.327 58.388 598.203 58.471 598.066 58.5276C597.929 58.5843 597.782 58.6133 597.634 58.613ZM588.675 58.613H586.091C585.792 58.612 585.506 58.4928 585.295 58.2814C585.083 58.0701 584.964 57.7838 584.963 57.485V54.902C584.964 54.603 585.083 54.3164 585.294 54.105C585.505 53.8935 585.792 53.7745 586.091 53.774H588.675C589.3 53.774 589.808 54.282 589.808 54.902V57.485C589.805 57.7841 589.684 58.0699 589.472 58.2809C589.26 58.4919 588.974 58.6112 588.675 58.613ZM579.716 58.613H577.133C576.833 58.613 576.546 58.4943 576.334 58.2829C576.121 58.0715 576.001 57.7846 576 57.485V54.902C576 54.7535 576.03 54.6065 576.087 54.4695C576.144 54.3324 576.228 54.208 576.333 54.1032C576.438 53.9984 576.563 53.9154 576.7 53.859C576.837 53.8025 576.985 53.7736 577.133 53.774H579.716C580.336 53.774 580.844 54.282 580.844 54.902V57.485C580.844 58.105 580.336 58.613 579.716 58.613ZM606.269 48.845H603.685C603.065 48.845 602.557 48.336 602.557 47.717V45.128C602.557 44.508 603.065 44 603.685 44H606.269C606.893 44 607.396 44.508 607.396 45.128V47.712C607.397 47.8605 607.368 48.0078 607.312 48.1453C607.256 48.2828 607.173 48.4078 607.068 48.5131C606.964 48.6184 606.839 48.7019 606.702 48.7589C606.565 48.8159 606.418 48.8451 606.269 48.845ZM597.31 48.845H594.727C594.107 48.845 593.599 48.336 593.599 47.717V45.128C593.599 44.508 594.107 44 594.727 44H597.31C597.93 44 598.438 44.508 598.438 45.128V47.712C598.439 47.8606 598.41 48.0079 598.354 48.1454C598.297 48.2828 598.215 48.4079 598.11 48.5132C598.005 48.6185 597.88 48.702 597.743 48.7589C597.606 48.8159 597.459 48.8451 597.31 48.845ZM588.352 48.845H585.768C585.468 48.8447 585.181 48.726 584.969 48.5146C584.757 48.3033 584.637 48.0165 584.635 47.717V45.128C584.635 44.508 585.143 44 585.768 44H588.352C588.971 44 589.48 44.508 589.48 45.128V47.712C589.48 48.336 588.971 48.845 588.352 48.845ZM597.634 69.107H595.05C594.43 69.107 593.922 68.599 593.922 67.979V65.396C593.922 64.771 594.43 64.268 595.05 64.268H597.634C598.253 64.268 598.761 64.776 598.761 65.396V67.979C598.761 68.1272 598.733 68.2739 598.676 68.4109C598.62 68.5479 598.537 68.6723 598.432 68.7771C598.327 68.882 598.203 68.965 598.066 69.0217C597.929 69.0783 597.782 69.1073 597.634 69.107ZM588.675 69.107H586.091C585.792 69.1059 585.506 68.9868 585.295 68.7755C585.083 68.5641 584.964 68.2778 584.963 67.979V65.396C584.964 65.097 585.083 64.8104 585.294 64.599C585.505 64.3875 585.792 64.2685 586.091 64.268H588.675C589.3 64.268 589.808 64.776 589.808 65.396V67.979C589.805 68.2781 589.684 68.5639 589.472 68.7749C589.26 68.9859 588.974 69.1052 588.675 69.107ZM615.555 339.613H612.971C612.672 339.613 612.385 339.494 612.174 339.282C611.963 339.071 611.844 338.784 611.844 338.485V335.902C611.844 335.277 612.352 334.774 612.971 334.774H615.555C616.175 334.774 616.683 335.282 616.683 335.902V338.485C616.683 338.633 616.655 338.78 616.598 338.917C616.541 339.054 616.458 339.179 616.354 339.284C616.249 339.388 616.124 339.471 615.987 339.528C615.85 339.585 615.703 339.613 615.555 339.613ZM606.597 339.613H604.014C603.394 339.613 602.886 339.105 602.886 338.485V335.902C602.886 335.277 603.394 334.774 604.014 334.774H606.597C607.217 334.774 607.725 335.282 607.725 335.902V338.485C607.725 339.105 607.217 339.613 606.597 339.613ZM597.634 339.613H595.05C594.43 339.613 593.922 339.105 593.922 338.485V335.902C593.922 335.277 594.43 334.774 595.05 334.774H597.634C598.253 334.774 598.761 335.282 598.761 335.902V338.485C598.761 338.633 598.733 338.78 598.676 338.917C598.62 339.054 598.537 339.178 598.432 339.283C598.327 339.388 598.203 339.471 598.066 339.528C597.929 339.584 597.782 339.613 597.634 339.613ZM588.675 339.613H586.091C585.792 339.612 585.506 339.493 585.295 339.281C585.083 339.07 584.964 338.784 584.963 338.485V335.902C584.964 335.603 585.083 335.316 585.294 335.105C585.505 334.894 585.792 334.775 586.091 334.774H588.675C589.3 334.774 589.808 335.282 589.808 335.902V338.485C589.805 338.784 589.684 339.07 589.472 339.281C589.26 339.492 588.974 339.611 588.675 339.613ZM579.716 339.613H577.133C576.833 339.613 576.546 339.494 576.334 339.283C576.121 339.072 576.001 338.785 576 338.485V335.902C576 335.754 576.03 335.607 576.087 335.469C576.144 335.332 576.228 335.208 576.333 335.103C576.438 334.998 576.563 334.915 576.7 334.859C576.837 334.802 576.985 334.774 577.133 334.774H579.716C580.336 334.774 580.844 335.282 580.844 335.902V338.485C580.844 339.105 580.336 339.613 579.716 339.613ZM606.269 329.845H603.685C603.065 329.845 602.557 329.336 602.557 328.717V326.128C602.557 325.508 603.065 325 603.685 325H606.269C606.893 325 607.396 325.508 607.396 326.128V328.712C607.397 328.861 607.368 329.008 607.312 329.145C607.256 329.283 607.173 329.408 607.068 329.513C606.964 329.618 606.839 329.702 606.702 329.759C606.565 329.816 606.418 329.845 606.269 329.845ZM597.31 329.845H594.727C594.107 329.845 593.599 329.336 593.599 328.717V326.128C593.599 325.508 594.107 325 594.727 325H597.31C597.93 325 598.438 325.508 598.438 326.128V328.712C598.439 328.861 598.41 329.008 598.354 329.145C598.297 329.283 598.215 329.408 598.11 329.513C598.005 329.618 597.88 329.702 597.743 329.759C597.606 329.816 597.459 329.845 597.31 329.845ZM588.352 329.845H585.768C585.468 329.845 585.181 329.726 584.969 329.515C584.757 329.303 584.637 329.017 584.635 328.717V326.128C584.635 325.508 585.143 325 585.768 325H588.352C588.971 325 589.48 325.508 589.48 326.128V328.712C589.48 329.336 588.971 329.845 588.352 329.845ZM597.634 350.107H595.05C594.43 350.107 593.922 349.599 593.922 348.979V346.396C593.922 345.771 594.43 345.268 595.05 345.268H597.634C598.253 345.268 598.761 345.776 598.761 346.396V348.979C598.761 349.127 598.733 349.274 598.676 349.411C598.62 349.548 598.537 349.672 598.432 349.777C598.327 349.882 598.203 349.965 598.066 350.022C597.929 350.078 597.782 350.107 597.634 350.107ZM588.675 350.107H586.091C585.792 350.106 585.506 349.987 585.295 349.775C585.083 349.564 584.964 349.278 584.963 348.979V346.396C584.964 346.097 585.083 345.81 585.294 345.599C585.505 345.388 585.792 345.269 586.091 345.268H588.675C589.3 345.268 589.808 345.776 589.808 346.396V348.979C589.805 349.278 589.684 349.564 589.472 349.775C589.26 349.986 588.974 350.105 588.675 350.107Z" stroke="#6F6F6F" stroke-width="3"/>
<path d="M187.548 122H187.453C186.894 129.643 181 129.761 181 129.761C181 129.761 187.5 129.883 187.5 138.714C187.5 129.883 194 129.761 194 129.761C194 129.761 188.107 129.643 187.548 122ZM144.578 200H144.425C143.521 212.346 134 212.536 134 212.536C134 212.536 144.5 212.734 144.5 227C144.5 212.734 155 212.536 155 212.536C155 212.536 145.481 212.346 144.578 200ZM270.548 240.143H270.453C269.894 247.786 264 247.904 264 247.904C264 247.904 270.5 248.026 270.5 256.857C270.5 248.026 277 247.904 277 247.904C277 247.904 271.107 247.786 270.548 240.143ZM270.548 140H270.453C269.894 147.643 264 147.761 264 147.761C264 147.761 270.5 147.883 270.5 156.714C270.5 147.883 277 147.761 277 147.761C277 147.761 271.107 147.643 270.548 140ZM181.443 254H181.336C180.7 262.688 174 262.822 174 262.822C174 262.822 181.388 262.961 181.388 273C181.388 262.961 188.777 262.822 188.777 262.822C188.777 262.822 182.079 262.688 181.443 254Z" stroke="#666AF6" stroke-width="3"/>
</g>
<defs>
<clipPath id="clip0_408_210">
<rect width="631" height="401" fill="white"/>
</clipPath>
</defs>
</svg>
